<?xml version="1.0" encoding="UTF-8" standalone="no"?>
<svg
   width="13.71"
   viewBox="-10 -10 112.38858 13.710134"
   data-icon="ui-components:python"
   version="1.1"
   id="svg2"
   height="13.710135"
   xmlns="http://www.w3.org/2000/svg"
   xmlns:svg="http://www.w3.org/2000/svg">
  <defs
     id="defs2" />
  <path
     fill="#306998"
     d="m 45.533413,-59.338964 c -4.584,0.022 -8.961,0.413 -12.813,1.095 -11.346,2.004 -13.406,6.2 -13.406,13.937 v 10.219 h 26.813 v 3.406 H 9.2524137 c -7.7930001,0 -14.616,4.684 -16.75,13.594 -2.4620003,10.2130005 -2.5710007,16.58600048 0,27.25 1.905,7.938 6.457,13.594 14.25,13.594 h 9.2179993 v -12.25 c 0,-8.8499995 7.657,-16.6569995 16.75,-16.6569995 h 26.782 c 7.454,0 13.406,-6.1380005 13.406,-13.6250005 v -25.53 c 0,-7.267 -6.13,-12.726 -13.406,-13.938 -4.606,-0.767 -9.386,-1.115 -13.97,-1.095 m -14.5,8.22 c 2.77,0 5.031,2.298 5.031,5.125 0,2.816 -2.262,5.093 -5.031,5.093 -2.78,0 -5.031,-2.277 -5.031,-5.093 0,-2.827 2.251,-5.125 5.03,-5.125"
     class="jp-icon-selectable"
     id="path1" />
  <path
     fill="#ffd43b"
     d="m 76.252413,-30.681964 v 11.906 c 0,9.2310005 -7.826,17.0000005 -16.75,17.0000005 h -26.782 c -7.336,0 -13.406,6.279 -13.406,13.6249995 v 25.532 c 0,7.266 6.319,11.54 13.406,13.625 8.488,2.495 16.627,2.946 26.782,0 6.75,-1.955 13.406,-5.888 13.406,-13.625 v -10.22 h -26.781 v -3.405 h 40.187 c 7.793,0 10.696,-5.436 13.406,-13.594 2.800007,-8.3989995 2.680007,-16.4759995 0,-27.25 -1.925,-7.758 -5.604,-13.594 -13.406,-13.594 z m -15.063,64.656 c 2.78,0 5.031,2.278 5.031,5.094 0,2.827 -2.251,5.125 -5.031,5.125 -2.77,0 -5.031,-2.298 -5.031,-5.125 0,-2.816 2.261,-5.094 5.031,-5.094"
     class="jp-icon-selectable"
     id="path2" />
</svg>
